<svg xmlns="http://www.w3.org/2000/svg" viewBox="0 0 200 200"><g fill="none" stroke="#80c89f" stroke-width="2"><path d="M163.06 89.87a62.51 62.51 0 0 0-62.51-62.51 62.51 62.51 0 0 0-62.51 62.51 62.51 62.51 0 0 0 62.51 62.51 62.51 62.51 0 0 0 62.51-62.51" vector-effect="non-scaling-stroke"/><path d="M29.44 143.13a.84.84 0 0 1 .7 1.42l-3.18 3.25a.52.52 0 0 0 .45.87c17.92-2.78 31.63 12.65 48.92 14.29a.34.33 29.4 0 1 .17.6c-4.74 3.53-12.4 2.43-17.54.69a.75.73-83.6 0 1-.51-.65q-.64-6.81-7.13-8.62c-4.69-1.31-8.08-3.51-13.01-3.46-2.49.03-4.6 1.52-7.64 1.37q-1-.04-.4.76l3.06 4.12a.47.46 63.1 0 1-.23.73l-1.11.34a.24.23-29.6 0 0-.11.38c4.19 4.65 7.92 5.57 12.71 8.06q.42.22.9.21.95-.01 1.42.83a1.24 1.23-7.9 0 0 .83.62q5.74 1.29 9.8-2.78a1.07 1.07 0 0 1 .85-.32c4.7.31 5.79 3.31 8.85 4.95 7.59 4.09 15.01-1.77 21.73-6.1a1.03 1.03 0 0 1 .9-.12l4.26 1.38q.99.32.05.78-4.16 2.05-7.27 5.53a.62.61 40.8 0 0 .07.88l2.27 1.87a.7.69 43.3 0 0 .91-.02c1.55-1.42 9.47-7.51 11.26-6.64q4.64 2.25 9.54 6.61a.67.66-42.8 0 0 .85.03l2.5-1.94a.44.43-42.1 0 0 .04-.65q-3.6-3.45-7.94-5.85a.34.34 0 0 1 .07-.62l4.49-1.36a1.15 1.13-38 0 1 .89.1c8.81 5.04 16.21 12.26 25.56 3.32 1.62-1.55 3.04-1.86 5.11-2.21a.96.94 62.4 0 1 .83.27c2.02 2 8.82 5.25 11.04 1.98a1.16 1.16 0 0 1 .77-.49c2-.34 3.54-1.56 5.21-2.19q4.95-1.86 8.44-5.99a.38.38 0 0 0-.15-.6l-1.03-.42a.4.39-59.1 0 1-.15-.62l3.01-3.63a.7.7 0 0 0-.52-1.14q-2.51-.07-4.85-.99c-4.39-1.72-10.79 1.29-14.95 2.83-4.7 1.73-7.41 3.74-7.6 8.8a.72.72 0 0 1-.49.65c-5.11 1.69-13.18 2.88-17.45-.78q-.39-.34.12-.41c17.81-2.49 30.13-16.02 48.95-14.64q.52.04.22-.39c-.52-.74-3.83-3.62-3.05-4.69a.85.83-67.9 0 1 .8-.35q3.77.49 6.77-1.19c4.47-2.51 9.61-14.38 9.81-19.33a.43.43 0 0 0-.39-.44l-1.29-.13a.43.43 0 0 1-.38-.53q.59-2.36-.04-4.7a.38.38 0 0 0-.58-.22q-1.97 1.33-4.17 2.12c-4.39 1.56-6.63 4.22-8.46 8.37q-.29.65-.96.67a.42.41-87 0 1-.42-.47l.86-6.41a.74.73-8.7 0 1 .43-.58c4.52-1.95 6.29-5.15 6.28-10.23-.01-4.93.32-10.85-2.37-15.22a.63.62 61.2 0 0-.81-.24l-.37.18a.57.56 59.5 0 1-.72-.19l-2.84-4.33q-.37-.54-.64.05c-1.26 2.76-3.75 4.53-4.65 7.13q-1.99 5.75-1.26 11.96.07.6-.43 1.34a1.37 1.34 58.9 0 0-.21.88q.64 5.7 5.5 8.48a.92.9-75.3 0 1 .45.79q.03 10.83-7.35 18.45a1.11 1.09-64.2 0 1-.91.33q-7.16-.7-11.49 2.01c-10.4 6.51-20.39 13.41-31.71 18.21a.92.91 50.1 0 1-.86-.08q-8.3-5.66-17.35-1.29a1.23 1.21-45.3 0 1-1.04.01q-9.18-4.34-17.56 1.2a1.03 1-50.2 0 1-.96.1c-10.25-4.24-17.23-9.02-29.35-16.89q-5.93-3.85-13.48-3.3a1.21 1.19 62.4 0 1-.87-.28c-5.48-4.65-7.41-11.36-7.85-18.48a.77.77 0 0 1 .41-.73c7.44-3.88 5.31-10.92 5.05-17.63-.23-6.1-4.13-7.7-5.89-12.57q-.15-.43-.4-.05l-2.91 4.49a.71.71 0 0 1-.7.31l-.47-.07a.79.78-65.9 0 0-.75.29c-3.43 4.41-2.21 11.91-2.47 16.76-.2 3.76 3.04 7.25 6.21 8.54a.77.77 0 0 1 .48.63l.73 6.37a.45.44 18.6 0 1-.75.37q-1.22-1.16-1.53-2.84a1.86 1.8 18.2 0 0-.51-.97l-4.12-4.12a1.95 1.88 71.2 0 0-1.01-.52q-3.22-.54-5.82-2.52a.39.38 27.9 0 0-.6.18q-.87 2.45-.05 4.88a.44.44 0 0 1-.47.58l-1.23-.15a.42.42 0 0 0-.46.43c.25 5.91 2.98 9.46 5.43 14.14 2.54 4.87 5.83 7.27 11.26 6.6m105.37-99.94c-37.22-27.29-89.69-2.3-92.26 43.78a.48.48 0 0 0 .47.51q6.39.13 13.05-2.18c11.76-4.07 19.14-8.07 31.22-2.68 7.66 3.42 12.44 5.53 20.01 1.64 8.2-4.22 15.72-6.17 24.41-2.21q13.51 6.15 26.36 5.55a.49.49 0 0 0 .47-.52q-1.87-27.87-23.73-43.89" vector-effect="non-scaling-stroke"/><path d="M158.23 92.79c-4.72-.06-8.92-.24-13.56-1.2-12.48-2.57-20.82-10.84-34.37-4.02-6.81 3.42-12.47 5.54-19.8 1.67-8.37-4.4-15.53-5.63-24.53-2.46-7.62 2.67-14.3 5.82-23.03 6.02a.49.49 0 0 0-.48.54l.31 3.4a.55.54-2.8 0 0 .56.5c7.03-.06 13.24-2.25 20.03-4.84 8.81-3.37 15.16-4 23.47-.23 4.96 2.25 9.28 4.66 15.21 3.6 3.12-.56 6.06-2.42 9.07-3.82 8.07-3.74 15.92-2.56 23.95 1.25q9.99 4.72 22.84 4.26a.58.57-88.9 0 0 .55-.53l.23-3.66a.45.45 0 0 0-.45-.48" vector-effect="non-scaling-stroke"/><path d="M156.57 102.43q-10.39-.16-15.59-2.11c-11.64-4.36-19.64-9.03-32.12-2.15-7.75 4.28-13.56 2.84-21.08-.65-7.22-3.35-14.01-3.88-21.77-1.11-7.1 2.53-13.49 5.22-21.44 5.71a.58.57 81.5 0 0-.52.71l.82 3.41a.75.74 81.2 0 0 .77.57c13.22-.84 23.45-10.64 37.75-6.31 7.07 2.14 11.7 6.66 19.79 4.63q1.39-.35 6.33-2.87 11.42-5.83 23.89-.12 10.32 4.73 22.07 4.89a.78.77 8.2 0 0 .76-.56l.93-3.24a.63.63 0 0 0-.59-.8" vector-effect="non-scaling-stroke"/><path d="M148.11 111.45c-11.3-1.93-20.68-8.7-31.87-6.73-5.44.96-9.58 5.02-14.91 5.65q-5.94.71-11.34-2.13c-7.48-3.92-15.16-5.24-23.29-2.42-6.39 2.22-12.33 4.88-19.1 5.8a.5.5 0 0 0-.4.7l1.09 2.54q.75 1.73 2.54 1.14c11.01-3.61 20.52-9.2 32.2-5.94 10.1 2.82 14.23 8.79 25.48 2.37 16.28-9.29 27.13 3.3 43.07 4a.74.73 12.9 0 0 .7-.43l1.55-3.43a.47.46-72.9 0 0-.34-.65c-1.8-.28-3.81-.2-5.38-.47" vector-effect="non-scaling-stroke"/><path d="M148.69 121.21c-15.59-2.34-24.78-12.68-41.26-3.06-7.06 4.12-13.4 1.38-20.46-1.53-14.11-5.81-21.79-.27-34.74 3.99a.42.42 0 0 0-.21.65l2 2.78a.72.72 0 0 0 .82.27c11.43-3.7 18.89-8.59 30.93-3.46 8.28 3.53 14.17 6.2 22.65 1.55 15.1-8.27 22.75-.53 36.9 3.08a.9.88 25.3 0 0 .92-.32l2.64-3.47a.3.3 0 0 0-.19-.48" vector-effect="non-scaling-stroke"/><path d="M141.83 129.79c-12.19-4.75-20.43-9.69-32.91-2.65-8.2 4.63-13.88 2.6-21.78-.93-11.03-4.93-18.55-1.99-29.2 2.07a.27.26 57.4 0 0-.09.43c23.65 24.61 59.7 25.74 84.06 1.48a.24.24 0 0 0-.08-.4M114 59.7c4.94-8.89-.55-22.49-12.21-22.55q-.51-.01-.04.17 10.2 3.8 9.57 14.23c-.86 14.17-20.67 15.92-25.63 2.64a.34.33-62.1 0 0-.64.2c3.53 14.72 21.36 18.98 28.95 5.31" vector-effect="non-scaling-stroke"/><path d="M96.42 44.54a.34.34 0 0 1-.17-.37l1-4.61a.34.34 0 0 0-.56-.32l-3.49 3.17a.34.34 0 0 1-.4.04l-4.08-2.37a.34.34 0 0 0-.48.43l1.94 4.3a.34.34 0 0 1-.09.4l-3.51 3.14a.34.34 0 0 0 .26.59l4.69-.51a.34.34 0 0 1 .35.2l1.9 4.31a.34.34 0 0 0 .64-.06l.96-4.62a.34.34 0 0 1 .3-.27l4.69-.47a.34.34 0 0 0 .14-.64l-4.09-2.34M28.425 97.255a2.24 1.05 98.6 0 0 1.373-2.058 2.24 1.05 98.6 0 0-.703-2.372 2.24 1.05 98.6 0 0-1.373 2.058 2.24 1.05 98.6 0 0 .703 2.372m144.107.117a2.33 1.03 82.8 0 0 .73-2.441 2.33 1.03 82.8 0 0-1.314-2.183 2.33 1.03 82.8 0 0-.73 2.441 2.33 1.03 82.8 0 0 1.314 2.183" vector-effect="non-scaling-stroke"/><path d="M29.78 101.97c2.07-.93 4.97-3.5 2.15-5.74a.51.51 0 0 0-.71.07q-1.93 2.29-1.94 5.34a.36.35 77.9 0 0 .5.33m139.27-5.73c-2.46 1.84.04 5.19 2.17 5.86a.41.41 0 0 0 .53-.38q.05-3.08-1.87-5.38a.61.61 0 0 0-.83-.1m-144.42.52q-1.16 3.9 2.86 5.15a.39.38-81.2 0 0 .5-.37q-.02-3.02-2.16-5.09a.72.72 0 0 0-1.2.31m150.26-.03q-1.94 1.98-1.74 4.77a.4.4 0 0 0 .55.34c2.08-.85 4.32-3.39 2.66-5.1a1.03 1.02 45 0 0-1.47-.01" vector-effect="non-scaling-stroke"/><path d="M29.405 107.667a3.78 1.28 125.5 0 0 3.237-2.334 3.78 1.28 125.5 0 0 1.153-3.82 3.78 1.28 125.5 0 0-3.237 2.334 3.78 1.28 125.5 0 0-1.153 3.82" vector-effect="non-scaling-stroke"/><path d="M27.982 107.204a3.49 1.36 51.3 0 0-1.12-3.574 3.49 1.36 51.3 0 0-3.244-1.874 3.49 1.36 51.3 0 0 1.12 3.574 3.49 1.36 51.3 0 0 3.244 1.874m143.458.409a3.62 1.29 55.5 0 0-.987-3.714 3.62 1.29 55.5 0 0-3.113-2.252 3.62 1.29 55.5 0 0 .987 3.714 3.62 1.29 55.5 0 0 3.113 2.252m5.41-5.963c-2.25 1.04-4.25 2.8-3.76 5.41a.37.36-21.1 0 0 .55.24c1.76-1.07 4.29-2.98 3.79-5.35a.42.42 0 0 0-.58-.3m-144.57 6.23q-2.56 2.05-3.06 5.32a.5.5 0 0 0 .79.47c2.3-1.73 5.08-3.6 4.12-6.94a.46.46 0 0 0-.64-.29q-.53.26-.74.81a1.5 1.49 82.1 0 1-.47.63m138.99 5.592a4.09 1.36 56.8 0 0-1.102-4.167 4.09 1.36 56.8 0 0-3.377-2.677 4.09 1.36 56.8 0 0 1.101 4.167 4.09 1.36 56.8 0 0 3.377 2.677m-143.143-.085a4.03 1.49 54.4 0 0-1.135-4.144 4.03 1.49 54.4 0 0-3.557-2.41 4.03 1.49 54.4 0 0 1.134 4.144 4.03 1.49 54.4 0 0 3.558 2.41" vector-effect="non-scaling-stroke"/><path d="M172.957 113.197a3.91 1.43 125.9 0 0 3.451-2.329 3.91 1.43 125.9 0 0 1.135-4.005 3.91 1.43 125.9 0 0-3.451 2.329 3.91 1.43 125.9 0 0-1.135 4.005M29.878 118.27a3.65 1.11 127.9 0 0 3.118-2.198 3.65 1.11 127.9 0 0 1.366-3.562 3.65 1.11 127.9 0 0-3.118 2.198 3.65 1.11 127.9 0 0-1.366 3.562" vector-effect="non-scaling-stroke"/><path d="M171.244 118.256a3.58 1.13 51.6 0 0-1.338-3.508 3.58 1.13 51.6 0 0-3.11-2.104 3.58 1.13 51.6 0 0 1.338 3.508 3.58 1.13 51.6 0 0 3.11 2.104" vector-effect="non-scaling-stroke"/><path d="M172.747 118.222a3.61 1.03 131.3 0 0 3.157-2.032 3.61 1.03 131.3 0 0 1.609-3.392 3.61 1.03 131.3 0 0-3.157 2.032 3.61 1.03 131.3 0 0-1.609 3.392m-144.44.01a3.52 1.12 48.4 0 0-1.5-3.376 3.52 1.12 48.4 0 0-3.174-1.888 3.52 1.12 48.4 0 0 1.5 3.376 3.52 1.12 48.4 0 0 3.174 1.888m-10.142 5.007a2.59.98 66.7 0 0-.125-2.767 2.59.98 66.7 0 0-1.924-1.99 2.59.98 66.7 0 0 .124 2.766 2.59.98 66.7 0 0 1.925 1.99m164.702.017a2.59.95 113.5 0 0 1.904-1.996 2.59.95 113.5 0 0 .162-2.754 2.59.95 113.5 0 0-1.904 1.996 2.59.95 113.5 0 0-.162 2.754M21.34 126.41c1.32-2.01 2.67-5.22-.88-6.05a.55.54-78.1 0 0-.66.44q-.51 3.07 1.22 5.61a.19.19 0 0 0 .32 0" vector-effect="non-scaling-stroke"/><path d="M180.59 120.32c-1.38.13-1.68 1.04-2.31 2.1a.97.97 0 0 0-.06.89l1.15 2.75q.27.65.69.08 1.77-2.38 1.09-5.41a.52.51 80.7 0 0-.56-.41m.59 7.21c2.12.57 6.76-.42 5.31-3.72a.63.63 0 0 0-.81-.34q-2.8 1.12-4.7 3.46a.38.38 0 0 0 .2.6m-162.75.15q.59.24 1.22.02a.44.44 0 0 0 .23-.65q-1.75-2.85-5.08-3.38a.46.46 0 0 0-.53.5q.3 3.42 3.57 3.39.3 0 .59.12m158.597 3.465a3.54 1.28 84.7 0 0 .948-3.643 3.54 1.28 84.7 0 0-1.602-3.407 3.54 1.28 84.7 0 0-.947 3.643 3.54 1.28 84.7 0 0 1.601 3.407m-153.079-.052a3.44 1.26 95.7 0 0 1.596-3.298 3.44 1.26 95.7 0 0-.912-3.548 3.44 1.26 95.7 0 0-1.596 3.298 3.44 1.26 95.7 0 0 .912 3.548" vector-effect="non-scaling-stroke"/><path d="M27.097 135.842a3.76 1.29 93.7 0 0 1.53-3.669 3.76 1.29 93.7 0 0-1.044-3.835 3.76 1.29 93.7 0 0-1.53 3.669 3.76 1.29 93.7 0 0 1.044 3.835m146.78.05a3.83 1.3 86.3 0 0 1.05-3.906 3.83 1.3 86.3 0 0-1.544-3.738 3.83 1.3 86.3 0 0-1.05 3.906 3.83 1.3 86.3 0 0 1.544 3.738M15.96 129.68c1.32 2.19 4.13 2.87 6.56 2.59a.39.39 0 0 0 .27-.62q-2.36-3.21-6.56-2.56a.39.39 0 0 0-.27.59m169.178-.365a3.72 1.26-21.2 0 0-3.924.17 3.72 1.26-21.2 0 0-3.012 2.52 3.72 1.26-21.2 0 0 3.924-.17 3.72 1.26-21.2 0 0 3.012-2.52" vector-effect="non-scaling-stroke"/><path d="M29.576 140.229a3.49 1.05 98.8 0 0 1.572-3.288 3.49 1.05 98.8 0 0-.504-3.61 3.49 1.05 98.8 0 0-1.572 3.288 3.49 1.05 98.8 0 0 .504 3.61m141.754-.029a3.45 1.05 82.5 0 0 .591-3.557 3.45 1.05 82.5 0 0-1.491-3.284 3.45 1.05 82.5 0 0-.591 3.558 3.45 1.05 82.5 0 0 1.491 3.284m11.439-6.381a4.32 1.4-23.6 0 0-4.52.447 4.32 1.4-23.6 0 0-3.398 3.013 4.32 1.4-23.6 0 0 4.52-.447 4.32 1.4-23.6 0 0 3.398-3.012M26.18 137.262a4.28 1.4 23 0 0-3.393-2.96 4.28 1.4 23 0 0-4.487-.384 4.28 1.4 23 0 0 3.393 2.96 4.28 1.4 23 0 0 4.487.384" vector-effect="non-scaling-stroke"/><path d="M164.43 140.23c1.6.81 3.15 1.83 4.69 2.84a.68.68 0 0 0 .97-.91q-1.43-2.54-1.67-5.42-.08-.9-.7-.24l-3.33 3.55a.12.11 34 0 0 .04.18M33.4 136.74a.32.32 0 0 0-.54.11l-2.11 6.09a.32.32 0 0 0 .46.38l4.94-2.91a.32.32 0 0 0 .08-.49l-2.83-3.18m-4.9 4.53a3.76 1.04 17.8 0 0-3.262-2.14 3.76 1.04 17.8 0 0-3.898-.16 3.76 1.04 17.8 0 0 3.262 2.14 3.76 1.04 17.8 0 0 3.898.16m151.04-2.371a3.64 1.04-19.1 0 0-3.78.208 3.64 1.04-19.1 0 0-3.1 2.174 3.64 1.04-19.1 0 0 3.78-.208 3.64 1.04-19.1 0 0 3.1-2.174m-9.7 6.721q-8.96-7.85-18.68-2.44c-8.17 4.55-19.14 12.97-29.53 17.1a.68.68 0 0 0 .28 1.32c17.53-.65 30.05-13.97 47.55-14.89q1.53-.08.38-1.09m-89.98 14.79c-9.52-3.88-17.04-9.4-25.65-14.52-8.75-5.21-15.98-7.92-23.46.2a.49.49 0 0 0 .12.75q.56.32 1.07.06a1.63 1.59 34 0 1 .94-.17q10.04 1.28 18.7 5.69c8.49 4.33 18.18 9.45 27.48 9.01q1.06-.05 1.11-.48a.52.51-75.1 0 0-.31-.54m-38.95-2.76a.47.47 0 0 0 .67-.43q-.05-4.28-4.04-4.55a.73.72-11.3 0 0-.71 1.05q1.37 2.71 4.08 3.93m118.75-1.29a.88.88 0 0 0 1.27.83q2.31-1.15 3.23-3.61a.54.53-76.8 0 0-.44-.72q-3.87-.41-4.06 3.5m-112.926 3.563a3.81 1.27 57.2 0 0-.997-3.891 3.81 1.27 57.2 0 0-3.13-2.515 3.81 1.27 57.2 0 0 .995 3.891 3.81 1.27 57.2 0 0 3.132 2.515" vector-effect="non-scaling-stroke"/><path d="M154.263 159.859a3.75 1.27 122.9 0 0 3.103-2.46 3.75 1.27 122.9 0 0 .97-3.838 3.75 1.27 122.9 0 0-3.102 2.46 3.75 1.27 122.9 0 0-.97 3.838m14.334-5.73a2.69.95-30.9 0 0-2.796.566 2.69.95-30.9 0 0-1.82 2.196 2.69.95-30.9 0 0 2.796-.566 2.69.95-30.9 0 0 1.82-2.196m-131.756 2.678a2.43.94 30.6 0 0-1.614-2.046 2.43.94 30.6 0 0-2.57-.428 2.43.94 30.6 0 0 1.614 2.046 2.43.94 30.6 0 0 2.57.428m15.27 4.995a4.01 1.41 56.7 0 0-1.023-4.126 4.01 1.41 56.7 0 0-3.38-2.578 4.01 1.41 56.7 0 0 1.022 4.126 4.01 1.41 56.7 0 0 3.38 2.578" vector-effect="non-scaling-stroke"/><path d="M153.25 155.09c-3.74.82-3.74 3.66-4.67 6.38a.46.45-5.5 0 0 .66.54q3.7-2.13 4.45-6.51a.36.36 0 0 0-.44-.41m-99.78 2.34a.53.53 0 0 0-.74.68l2.39 5.13a.91.91 0 0 0 1.73-.46q-.31-3.57-3.38-5.35" vector-effect="non-scaling-stroke"/><path d="M144.446 163.371a3.47 1.17 119.8 0 0 2.74-2.43 3.47 1.17 119.8 0 0 .708-3.592 3.47 1.17 119.8 0 0-2.74 2.43 3.47 1.17 119.8 0 0-.708 3.592M95.83 158.33c-12.07-2.55-17.33 8.8-27.95 10.47a.54.53 48.5 0 0-.06 1.04q6.97 2.02 12.51-1.5 7.72-4.9 15.56-9.64.43-.27-.06-.37m37.55 10.66c-11.05-3.17-16.74-12.72-29.07-10.67a.46.46 0 0 0-.04.9c9.43 2.37 18.82 15.49 29.15 10.2a.23.23 0 0 0-.04-.43m32.82-10.13q-3.03-1.16-6 .15a.25.25 0 0 0-.08.4q2.99 3.39 6.28.64a.7.7 0 0 0-.2-1.19m-131.15 1.63q2.96 1.63 5.64-.85a.42.42 0 0 0-.15-.71q-2.6-.91-5.33-.04-1.94.62-.16 1.6m10.722.571a3.61 1.31-15.9 0 0-3.83-.27 3.61 1.31-15.9 0 0-3.114 2.248 3.61 1.31-15.9 0 0 3.83.27 3.61 1.31-15.9 0 0 3.114-2.248m60.808.229c-4.37-.84-7.22-1.54-11.66-.03q-.49.17-.04.41c5.16 2.8 6.61 1.35 11.75.26a.16.15-7.2 0 0 .12-.15v-.29a.21.2 5.1 0 0-.17-.2m55.5 1.34q-2.97-3.35-6.89-1.56-.64.3-.04.66c1.86 1.14 4.87 3.09 6.89 1.37a.33.33 0 0 0 .04-.47m-110.544.747a4.06 1.38-13 0 0-4.266-.432 4.06 1.38-13 0 0-3.646 2.258 4.06 1.38-13 0 0 4.266.432 4.06 1.38-13 0 0 3.646-2.258M157.41 165.2a4.09 1.44 12.7 0 0-3.673-2.305 4.09 1.44 12.7 0 0-4.307.506 4.09 1.44 12.7 0 0 3.673 2.304 4.09 1.44 12.7 0 0 4.307-.506" vector-effect="non-scaling-stroke"/><path d="M103.22 166.77a.81.81 0 0 1 .09-1.55l6.32-1.6a.13.13 0 0 0 .09-.19l-.17-.3a.59.58 66.8 0 0-.66-.27l-7.83 2.26a1.72 1.7-43.5 0 1-.99-.02c-2.22-.74-6.07-2.49-8.31-1.81q-.65.2 0 .41l5.34 1.69a.68.68 0 0 1 .08 1.27q-4.53 2.12-8.2 5.46a.66.65-38.7 0 0-.1.86c.38.55 1.03.31 1.5-.08q4.48-3.79 9.94-6.2a1.24 1.21-42.3 0 1 1.07.04q5.13 2.77 9.61 6.31c.42.33.97.31 1.23-.18a.49.49 0 0 0-.1-.57q-3.9-3.63-8.91-5.53m-47.082-1.624a3.63 1-18.7 0 0-3.759.217 3.63 1-18.7 0 0-3.117 2.11 3.63 1-18.7 0 0 3.759-.216 3.63 1-18.7 0 0 3.117-2.11m95.707 2.302a3.73 1.07 18.1 0 0-3.213-2.176 3.73 1.07 18.1 0 0-3.877-.142 3.73 1.07 18.1 0 0 3.213 2.176 3.73 1.07 18.1 0 0 3.877.142M121.6 134.68q-.87-2.18.11-4.21a1.44 1.42 89.6 0 1 .64-.66l5.33-2.78a.18.17-23.4 0 0 .09-.22l-.1-.28a.29.28-23.2 0 0-.39-.15l-5.29 2.56a1.78 1.75-88 0 0-.76.72q-1.45 2.59-.73 5.86.12.54-.31.83a.58.58 0 0 1-.8-.14l-.57-.77a.61.61 0 0 0-.98-.01q-1.35 1.74.25 3.32a.76.76 0 0 1-.35 1.28q-1.17.3-1.98 1.15-.96 1.02.38.63l2.09-.61a1.22 1.2-88.9 0 0 .79-.77l.83-2.51a.7.69 10.2 0 1 .7-.48q4.26.29 6.2-3.69a.61.61 0 0 0-.31-.83q-3.02-1.3-3.77 1.69a.56.56 0 0 1-1.07.07m-29.19-2.73a1.06 1.06 0 0 0-1.06-1.06 1.06 1.06 0 0 0-1.06 1.06 1.06 1.06 0 0 0 1.06 1.06 1.06 1.06 0 0 0 1.06-1.06m-17.58 2.62-.36-.93q-.28-.71-.7-.08c-2.77 4.23 4.1 4.72 6.27 5.19 2.41.51 3.94.25 5.45-1.61a.45.45 0 0 1 .79.35q-.24 1.66.32 3.23 1.02 2.91 2.99.54l2.43-2.92a.56.56 0 0 0-.19-.86l-.37-.18a.7.7 0 0 0-.87.23l-1.43 2.01a.79.79 0 0 1-1.35-.12c-1.38-2.85-.26-4.55-.75-7.47q-.29-1.73-.5.01l-.53 4.32a.7.69-2.4 0 1-.55.59q-5.32 1.03-10.12-1.68a1.24 1.18 5.7 0 1-.53-.62m20.5 3.99.37.52a.45.45 0 0 1-.21.69l-.95.34a.49.48-20.6 0 0-.29.63l.45 1.11q.35.9.93.12.53-.72.34-1.65a.98.97-25.1 0 1 .36-.98l.85-.67a.63.63 0 0 1 1.02.5c-.03 5.96 11.57 1.07 13.81-.66q1.73-1.35 3.88-1.86a.72.72 0 0 0 .53-.91l-.54-1.76a.59.58-43.7 0 0-1.11-.02c-1.59 4.42-8.21 5.86-12.22 5.64-3.24-.17-5.05-2.38-8.93-2.09a.78.78 0 0 0-.69.52c-.27.76 1.26 2.49 1.86.62q.18-.58.54-.09" vector-effect="non-scaling-stroke"/><path d="M92.2 135.99q1.44.22 2.28-.75.39-.45-.2-.55-3.94-.66-6.01 2.39a.54.53-58.9 0 0 .19.77c1.47.82 1.38-2.21 3.74-1.86m14.78.369a.8.8 0 0 0-.797-.803l-3.3-.012a.8.8 0 0 0-.802.797l-.002.32a.8.8 0 0 0 .798.803l3.3.012a.8.8 0 0 0 .802-.797l.002-.32m-30.047 5.116a1.37.96 102.9 0 0 1.242-1.12 1.37.96 102.9 0 0-.63-1.55 1.37.96 102.9 0 0-1.242 1.12 1.37.96 102.9 0 0 .63 1.55m9.816 2.165a.23.22 58.3 0 0-.04.18c.29 1.68 2.75 1.09 1.82-1.35q-.3-.78-.81-.11l-.97 1.28m36.26-8.54a.43.43 0 0 0 .66.46l1.41-.97q1.08-.74-.22-.85-1.47-.13-1.85 1.36m6.87 23.97q3.18-.47 5.99-2.02 8.22-4.51 16.51-8.84 3.56-1.85 7.79-2.06a.67.67 0 0 0 .54-1.01c-1.02-1.69-8.97 1.57-10.43 2.37-6.66 3.63-12.39 7.67-20 10.44-.26.09-.59.45-.71.66a.31.31 0 0 0 .31.46m-58.82-.92q-11.49-4.95-21.54-11.47-2.6-1.69-8.6-2.01a.54.53 10.1 0 0-.55.38l-.1.31a.5.5 0 0 0 .42.64q6.62.79 11.5 3.82c2.98 1.85 17.9 11 19.1 9.09a.52.52 0 0 0-.23-.76" vector-effect="non-scaling-stroke"/></g><path fill="#fcfefc" d="M0 0h200v200H0V0Zm163.06 89.87a62.51 62.51 0 0 0-62.51-62.51 62.51 62.51 0 0 0-62.51 62.51 62.51 62.51 0 0 0 62.51 62.51 62.51 62.51 0 0 0 62.51-62.51ZM29.44 143.13a.84.84 0 0 1 .7 1.42l-3.18 3.25a.52.52 0 0 0 .45.87c17.92-2.78 31.63 12.65 48.92 14.29a.34.33 29.4 0 1 .17.6c-4.74 3.53-12.4 2.43-17.54.69a.75.73-83.6 0 1-.51-.65q-.64-6.81-7.13-8.62c-4.69-1.31-8.08-3.51-13.01-3.46-2.49.03-4.6 1.52-7.64 1.37q-1-.04-.4.76l3.06 4.12a.47.46 63.1 0 1-.23.73l-1.11.34a.24.23-29.6 0 0-.11.38c4.19 4.65 7.92 5.57 12.71 8.06q.42.22.9.21.95-.01 1.42.83a1.24 1.23-7.9 0 0 .83.62q5.74 1.29 9.8-2.78a1.07 1.07 0 0 1 .85-.32c4.7.31 5.79 3.31 8.85 4.95 7.59 4.09 15.01-1.77 21.73-6.1a1.03 1.03 0 0 1 .9-.12l4.26 1.38q.99.32.05.78-4.16 2.05-7.27 5.53a.62.61 40.8 0 0 .07.88l2.27 1.87a.7.69 43.3 0 0 .91-.02c1.55-1.42 9.47-7.51 11.26-6.64q4.64 2.25 9.54 6.61a.67.66-42.8 0 0 .85.03l2.5-1.94a.44.43-42.1 0 0 .04-.65q-3.6-3.45-7.94-5.85a.34.34 0 0 1 .07-.62l4.49-1.36a1.15 1.13-38 0 1 .89.1c8.81 5.04 16.21 12.26 25.56 3.32 1.62-1.55 3.04-1.86 5.11-2.21a.96.94 62.4 0 1 .83.27c2.02 2 8.82 5.25 11.04 1.98a1.16 1.16 0 0 1 .77-.49c2-.34 3.54-1.56 5.21-2.19q4.95-1.86 8.44-5.99a.38.38 0 0 0-.15-.6l-1.03-.42a.4.39-59.1 0 1-.15-.62l3.01-3.63a.7.7 0 0 0-.52-1.14q-2.51-.07-4.85-.99c-4.39-1.72-10.79 1.29-14.95 2.83-4.7 1.73-7.41 3.74-7.6 8.8a.72.72 0 0 1-.49.65c-5.11 1.69-13.18 2.88-17.45-.78q-.39-.34.12-.41c17.81-2.49 30.13-16.02 48.95-14.64q.52.04.22-.39c-.52-.74-3.83-3.62-3.05-4.69a.85.83-67.9 0 1 .8-.35q3.77.49 6.77-1.19c4.47-2.51 9.61-14.38 9.81-19.33a.43.43 0 0 0-.39-.44l-1.29-.13a.43.43 0 0 1-.38-.53q.59-2.36-.04-4.7a.38.38 0 0 0-.58-.22q-1.97 1.33-4.17 2.12c-4.39 1.56-6.63 4.22-8.46 8.37q-.29.65-.96.67a.42.41-87 0 1-.42-.47l.86-6.41a.74.73-8.7 0 1 .43-.58c4.52-1.95 6.29-5.15 6.28-10.23-.01-4.93.32-10.85-2.37-15.22a.63.62 61.2 0 0-.81-.24l-.37.18a.57.56 59.5 0 1-.72-.19l-2.84-4.33q-.37-.54-.64.05c-1.26 2.76-3.75 4.53-4.65 7.13q-1.99 5.75-1.26 11.96.07.6-.43 1.34a1.37 1.34 58.9 0 0-.21.88q.64 5.7 5.5 8.48a.92.9-75.3 0 1 .45.79q.03 10.83-7.35 18.45a1.11 1.09-64.2 0 1-.91.33q-7.16-.7-11.49 2.01c-10.4 6.51-20.39 13.41-31.71 18.21a.92.91 50.1 0 1-.86-.08q-8.3-5.66-17.35-1.29a1.23 1.21-45.3 0 1-1.04.01q-9.18-4.34-17.56 1.2a1.03 1-50.2 0 1-.96.1c-10.25-4.24-17.23-9.02-29.35-16.89q-5.93-3.85-13.48-3.3a1.21 1.19 62.4 0 1-.87-.28c-5.48-4.65-7.41-11.36-7.85-18.48a.77.77 0 0 1 .41-.73c7.44-3.88 5.31-10.92 5.05-17.63-.23-6.1-4.13-7.7-5.89-12.57q-.15-.43-.4-.05l-2.91 4.49a.71.71 0 0 1-.7.31l-.47-.07a.79.78-65.9 0 0-.75.29c-3.43 4.41-2.21 11.91-2.47 16.76-.2 3.76 3.04 7.25 6.21 8.54a.77.77 0 0 1 .48.63l.73 6.37a.45.44 18.6 0 1-.75.37q-1.22-1.16-1.53-2.84a1.86 1.8 18.2 0 0-.51-.97l-4.12-4.12a1.95 1.88 71.2 0 0-1.01-.52q-3.22-.54-5.82-2.52a.39.38 27.9 0 0-.6.18q-.87 2.45-.05 4.88a.44.44 0 0 1-.47.58l-1.23-.15a.42.42 0 0 0-.46.43c.25 5.91 2.98 9.46 5.43 14.14 2.54 4.87 5.83 7.27 11.26 6.6Z"/><path fill="#049141" d="M163.06 89.87a62.51 62.51 0 0 1-62.51 62.51 62.51 62.51 0 0 1-62.51-62.51 62.51 62.51 0 0 1 62.51-62.51 62.51 62.51 0 0 1 62.51 62.51Zm-28.25-46.68c-37.22-27.29-89.69-2.3-92.26 43.78a.48.48 0 0 0 .47.51q6.39.13 13.05-2.18c11.76-4.07 19.14-8.07 31.22-2.68 7.66 3.42 12.44 5.53 20.01 1.64 8.2-4.22 15.72-6.17 24.41-2.21q13.51 6.15 26.36 5.55a.49.49 0 0 0 .47-.52q-1.87-27.87-23.73-43.89Zm23.42 49.6c-4.72-.06-8.92-.24-13.56-1.2-12.48-2.57-20.82-10.84-34.37-4.02-6.81 3.42-12.47 5.54-19.8 1.67-8.37-4.4-15.53-5.63-24.53-2.46-7.62 2.67-14.3 5.82-23.03 6.02a.49.49 0 0 0-.48.54l.31 3.4a.55.54-2.8 0 0 .56.5c7.03-.06 13.24-2.25 20.03-4.84 8.81-3.37 15.16-4 23.47-.23 4.96 2.25 9.28 4.66 15.21 3.6 3.12-.56 6.06-2.42 9.07-3.82 8.07-3.74 15.92-2.56 23.95 1.25q9.99 4.72 22.84 4.26a.58.57-88.9 0 0 .55-.53l.23-3.66a.45.45 0 0 0-.45-.48Zm-1.66 9.64q-10.39-.16-15.59-2.11c-11.64-4.36-19.64-9.03-32.12-2.15-7.75 4.28-13.56 2.84-21.08-.65-7.22-3.35-14.01-3.88-21.77-1.11-7.1 2.53-13.49 5.22-21.44 5.71a.58.57 81.5 0 0-.52.71l.82 3.41a.75.74 81.2 0 0 .77.57c13.22-.84 23.45-10.64 37.75-6.31 7.07 2.14 11.7 6.66 19.79 4.63q1.39-.35 6.33-2.87 11.42-5.83 23.89-.12 10.32 4.73 22.07 4.89a.78.77 8.2 0 0 .76-.56l.93-3.24a.63.63 0 0 0-.59-.8Zm-8.46 9.02c-11.3-1.93-20.68-8.7-31.87-6.73-5.44.96-9.58 5.02-14.91 5.65q-5.94.71-11.34-2.13c-7.48-3.92-15.16-5.24-23.29-2.42-6.39 2.22-12.33 4.88-19.1 5.8a.5.5 0 0 0-.4.7l1.09 2.54q.75 1.73 2.54 1.14c11.01-3.61 20.52-9.2 32.2-5.94 10.1 2.82 14.23 8.79 25.48 2.37 16.28-9.29 27.13 3.3 43.07 4a.74.73 12.9 0 0 .7-.43l1.55-3.43a.47.46-72.9 0 0-.34-.65c-1.8-.28-3.81-.2-5.38-.47Zm.58 9.76c-15.59-2.34-24.78-12.68-41.26-3.06-7.06 4.12-13.4 1.38-20.46-1.53-14.11-5.81-21.79-.27-34.74 3.99a.42.42 0 0 0-.21.65l2 2.78a.72.72 0 0 0 .82.27c11.43-3.7 18.89-8.59 30.93-3.46 8.28 3.53 14.17 6.2 22.65 1.55 15.1-8.27 22.75-.53 36.9 3.08a.9.88 25.3 0 0 .92-.32l2.64-3.47a.3.3 0 0 0-.19-.48Zm-6.86 8.58c-12.19-4.75-20.43-9.69-32.91-2.65-8.2 4.63-13.88 2.6-21.78-.93-11.03-4.93-18.55-1.99-29.2 2.07a.27.26 57.4 0 0-.09.43c23.65 24.61 59.7 25.74 84.06 1.48a.24.24 0 0 0-.08-.4Z"/><path fill="#fcfefc" d="M134.81 43.19q21.86 16.02 23.73 43.89a.49.49 0 0 1-.47.52q-12.85.6-26.36-5.55c-8.69-3.96-16.21-2.01-24.41 2.21-7.57 3.89-12.35 1.78-20.01-1.64-12.08-5.39-19.46-1.39-31.22 2.68q-6.66 2.31-13.05 2.18a.48.48 0 0 1-.47-.51c2.57-46.08 55.04-71.07 92.26-43.78ZM114 59.7c4.94-8.89-.55-22.49-12.21-22.55q-.51-.01-.04.17 10.2 3.8 9.57 14.23c-.86 14.17-20.67 15.92-25.63 2.64a.34.33-62.1 0 0-.64.2c3.53 14.72 21.36 18.98 28.95 5.31ZM96.42 44.54a.34.34 0 0 1-.17-.37l1-4.61a.34.34 0 0 0-.56-.32l-3.49 3.17a.34.34 0 0 1-.4.04l-4.08-2.37a.34.34 0 0 0-.48.43l1.94 4.3a.34.34 0 0 1-.09.4l-3.51 3.14a.34.34 0 0 0 .26.59l4.69-.51a.34.34 0 0 1 .35.2l1.9 4.31a.34.34 0 0 0 .64-.06l.96-4.62a.34.34 0 0 1 .3-.27l4.69-.47a.34.34 0 0 0 .14-.64l-4.09-2.34Z"/><path fill="#049141" d="M101.79 37.15c11.66.06 17.15 13.66 12.21 22.55-7.59 13.67-25.42 9.41-28.95-5.31a.34.33-62.1 0 1 .64-.2c4.96 13.28 24.77 11.53 25.63-2.64q.63-10.43-9.57-14.23-.47-.18.04-.17Z"/><path fill="#049141" d="m96.42 44.54 4.09 2.34a.34.34 0 0 1-.14.64l-4.69.47a.34.34 0 0 0-.3.27l-.96 4.62a.34.34 0 0 1-.64.06l-1.9-4.31a.34.34 0 0 0-.35-.2l-4.69.51a.34.34 0 0 1-.26-.59l3.51-3.14a.34.34 0 0 0 .09-.4l-1.94-4.3a.34.34 0 0 1 .48-.43l4.08 2.37a.34.34 0 0 0 .4-.04l3.49-3.17a.34.34 0 0 1 .56.32l-1 4.61a.34.34 0 0 0 .17.37Z"/><path fill="#fcfefc" d="M144.67 91.59c4.64.96 8.84 1.14 13.56 1.2a.45.45 0 0 1 .45.48l-.23 3.66a.58.57-88.9 0 1-.55.53q-12.85.46-22.84-4.26c-8.03-3.81-15.88-4.99-23.95-1.25-3.01 1.4-5.95 3.26-9.07 3.82-5.93 1.06-10.25-1.35-15.21-3.6-8.31-3.77-14.66-3.14-23.47.23-6.79 2.59-13 4.78-20.03 4.84a.55.54-2.8 0 1-.56-.5l-.31-3.4a.49.49 0 0 1 .48-.54c8.73-.2 15.41-3.35 23.03-6.02 9-3.17 16.16-1.94 24.53 2.46 7.33 3.87 12.99 1.75 19.8-1.67 13.55-6.82 21.89 1.45 34.37 4.02Z"/><path fill="#049141" d="M29.44 143.13c-5.43.67-8.72-1.73-11.26-6.6-2.45-4.68-5.18-8.23-5.43-14.14a.42.42 0 0 1 .46-.43l1.23.15a.44.44 0 0 0 .47-.58q-.82-2.43.05-4.88a.39.38 27.9 0 1 .6-.18q2.6 1.98 5.82 2.52a1.95 1.88 71.2 0 1 1.01.52l4.12 4.12a1.86 1.8 18.2 0 1 .51.97q.31 1.68 1.53 2.84a.45.44 18.6 0 0 .75-.37l-.73-6.37a.77.77 0 0 0-.48-.63c-3.17-1.29-6.41-4.78-6.21-8.54.26-4.85-.96-12.35 2.47-16.76a.79.78-65.9 0 1 .75-.29l.47.07a.71.71 0 0 0 .7-.31l2.91-4.49q.25-.38.4.05c1.76 4.87 5.66 6.47 5.89 12.57.26 6.71 2.39 13.75-5.05 17.63a.77.77 0 0 0-.41.73c.44 7.12 2.37 13.83 7.85 18.48a1.21 1.19 62.4 0 0 .87.28q7.55-.55 13.48 3.3c12.12 7.87 19.1 12.65 29.35 16.89a1.03 1-50.2 0 0 .96-.1q8.38-5.54 17.56-1.2a1.23 1.21-45.3 0 0 1.04-.01q9.05-4.37 17.35 1.29a.92.91 50.1 0 0 .86.08c11.32-4.8 21.31-11.7 31.71-18.21q4.33-2.71 11.49-2.01a1.11 1.09-64.2 0 0 .91-.33q7.38-7.62 7.35-18.45a.92.9-75.3 0 0-.45-.79q-4.86-2.78-5.5-8.48a1.37 1.34 58.9 0 1 .21-.88q.5-.74.43-1.34-.73-6.21 1.26-11.96c.9-2.6 3.39-4.37 4.65-7.13q.27-.59.64-.05l2.84 4.33a.57.56 59.5 0 0 .72.19l.37-.18a.63.62 61.2 0 1 .81.24c2.69 4.37 2.36 10.29 2.37 15.22.01 5.08-1.76 8.28-6.28 10.23a.74.73-8.7 0 0-.43.58l-.86 6.41a.42.41-87 0 0 .42.47q.67-.02.96-.67c1.83-4.15 4.07-6.81 8.46-8.37q2.2-.79 4.17-2.12a.38.38 0 0 1 .58.22q.63 2.34.04 4.7a.43.43 0 0 0 .38.53l1.29.13a.43.43 0 0 1 .39.44c-.2 4.95-5.34 16.82-9.81 19.33q-3 1.68-6.77 1.19a.85.83-67.9 0 0-.8.35c-.78 1.07 2.53 3.95 3.05 4.69q.3.43-.22.39c-18.82-1.38-31.14 12.15-48.95 14.64q-.51.07-.12.41c4.27 3.66 12.34 2.47 17.45.78a.72.72 0 0 0 .49-.65c.19-5.06 2.9-7.07 7.6-8.8 4.16-1.54 10.56-4.55 14.95-2.83q2.34.92 4.85.99a.7.7 0 0 1 .52 1.14l-3.01 3.63a.4.39-59.1 0 0 .15.62l1.03.42a.38.38 0 0 1 .15.6q-3.49 4.13-8.44 5.99c-1.67.63-3.21 1.85-5.21 2.19a1.16 1.16 0 0 0-.77.49c-2.22 3.27-9.02.02-11.04-1.98a.96.94 62.4 0 0-.83-.27c-2.07.35-3.49.66-5.11 2.21-9.35 8.94-16.75 1.72-25.56-3.32a1.15 1.13-38 0 0-.89-.1l-4.49 1.36a.34.34 0 0 0-.07.62q4.34 2.4 7.94 5.85a.44.43-42.1 0 1-.04.65l-2.5 1.94a.67.66-42.8 0 1-.85-.03q-4.9-4.36-9.54-6.61c-1.79-.87-9.71 5.22-11.26 6.64a.7.69 43.3 0 1-.91.02l-2.27-1.87a.62.61 40.8 0 1-.07-.88q3.11-3.48 7.27-5.53.94-.46-.05-.78l-4.26-1.38a1.03 1.03 0 0 0-.9.12c-6.72 4.33-14.14 10.19-21.73 6.1-3.06-1.64-4.15-4.64-8.85-4.95a1.07 1.07 0 0 0-.85.32q-4.06 4.07-9.8 2.78a1.24 1.23-7.9 0 1-.83-.62q-.47-.84-1.42-.83-.48.01-.9-.21c-4.79-2.49-8.52-3.41-12.71-8.06a.24.23-29.6 0 1 .11-.38l1.11-.34a.47.46 63.1 0 0 .23-.73l-3.06-4.12q-.6-.8.4-.76c3.04.15 5.15-1.34 7.64-1.37 4.93-.05 8.32 2.15 13.01 3.46q6.49 1.81 7.13 8.62a.75.73-83.6 0 0 .51.65c5.14 1.74 12.8 2.84 17.54-.69a.34.33 29.4 0 0-.17-.6c-17.29-1.64-31-17.07-48.92-14.29a.52.52 0 0 1-.45-.87l3.18-3.25a.84.84 0 0 0-.7-1.42Zm-1.015-45.875a2.24 1.05 98.6 0 0 1.373-2.058 2.24 1.05 98.6 0 0-.703-2.372 2.24 1.05 98.6 0 0-1.373 2.058 2.24 1.05 98.6 0 0 .703 2.372Zm144.107.117a2.33 1.03 82.8 0 0 .73-2.441 2.33 1.03 82.8 0 0-1.314-2.183 2.33 1.03 82.8 0 0-.73 2.441 2.33 1.03 82.8 0 0 1.314 2.183ZM29.78 101.97c2.07-.93 4.97-3.5 2.15-5.74a.51.51 0 0 0-.71.07q-1.93 2.29-1.94 5.34a.36.35 77.9 0 0 .5.33Zm139.27-5.73c-2.46 1.84.04 5.19 2.17 5.86a.41.41 0 0 0 .53-.38q.05-3.08-1.87-5.38a.61.61 0 0 0-.83-.1Zm-144.42.52q-1.16 3.9 2.86 5.15a.39.38-81.2 0 0 .5-.37q-.02-3.02-2.16-5.09a.72.72 0 0 0-1.2.31Zm150.26-.03q-1.94 1.98-1.74 4.77a.4.4 0 0 0 .55.34c2.08-.85 4.32-3.39 2.66-5.1a1.03 1.02 45 0 0-1.47-.01ZM29.405 107.667a3.78 1.28 125.5 0 0 3.237-2.334 3.78 1.28 125.5 0 0 1.153-3.82 3.78 1.28 125.5 0 0-3.237 2.334 3.78 1.28 125.5 0 0-1.153 3.82Zm-1.423-.463a3.49 1.36 51.3 0 0-1.12-3.574 3.49 1.36 51.3 0 0-3.244-1.874 3.49 1.36 51.3 0 0 1.12 3.574 3.49 1.36 51.3 0 0 3.244 1.874Zm143.458.41a3.62 1.29 55.5 0 0-.987-3.715 3.62 1.29 55.5 0 0-3.113-2.252 3.62 1.29 55.5 0 0 .987 3.714 3.62 1.29 55.5 0 0 3.113 2.252Zm5.41-5.964c-2.25 1.04-4.25 2.8-3.76 5.41a.37.36-21.1 0 0 .55.24c1.76-1.07 4.29-2.98 3.79-5.35a.42.42 0 0 0-.58-.3Zm-144.57 6.23q-2.56 2.05-3.06 5.32a.5.5 0 0 0 .79.47c2.3-1.73 5.08-3.6 4.12-6.94a.46.46 0 0 0-.64-.29q-.53.26-.74.81a1.5 1.49 82.1 0 1-.47.63Zm138.99 5.592a4.09 1.36 56.8 0 0-1.102-4.167 4.09 1.36 56.8 0 0-3.377-2.677 4.09 1.36 56.8 0 0 1.101 4.167 4.09 1.36 56.8 0 0 3.377 2.677Zm-143.144-.085a4.03 1.49 54.4 0 0-1.135-4.144 4.03 1.49 54.4 0 0-3.557-2.41 4.03 1.49 54.4 0 0 1.134 4.144 4.03 1.49 54.4 0 0 3.558 2.41Zm144.831-.19a3.91 1.43 125.9 0 0 3.451-2.329 3.91 1.43 125.9 0 0 1.135-4.005 3.91 1.43 125.9 0 0-3.451 2.329 3.91 1.43 125.9 0 0-1.135 4.005Zm-143.08 5.073a3.65 1.11 127.9 0 0 3.119-2.198 3.65 1.11 127.9 0 0 1.366-3.562 3.65 1.11 127.9 0 0-3.118 2.198 3.65 1.11 127.9 0 0-1.366 3.562Zm141.367-.014a3.58 1.13 51.6 0 0-1.338-3.508 3.58 1.13 51.6 0 0-3.11-2.104 3.58 1.13 51.6 0 0 1.338 3.508 3.58 1.13 51.6 0 0 3.11 2.104Zm1.503-.034a3.61 1.03 131.3 0 0 3.157-2.032 3.61 1.03 131.3 0 0 1.609-3.392 3.61 1.03 131.3 0 0-3.157 2.032 3.61 1.03 131.3 0 0-1.609 3.392Zm-144.44.01a3.52 1.12 48.4 0 0-1.5-3.376 3.52 1.12 48.4 0 0-3.174-1.888 3.52 1.12 48.4 0 0 1.5 3.376 3.52 1.12 48.4 0 0 3.174 1.888Zm-10.142 5.007a2.59.98 66.7 0 0-.125-2.767 2.59.98 66.7 0 0-1.924-1.99 2.59.98 66.7 0 0 .124 2.766 2.59.98 66.7 0 0 1.925 1.99Zm164.702.016a2.59.95 113.5 0 0 1.904-1.996 2.59.95 113.5 0 0 .162-2.754 2.59.95 113.5 0 0-1.904 1.996 2.59.95 113.5 0 0-.162 2.754ZM21.34 126.41c1.32-2.01 2.67-5.22-.88-6.05a.55.54-78.1 0 0-.66.44q-.51 3.07 1.22 5.61a.19.19 0 0 0 .32 0Zm159.25-6.09c-1.38.13-1.68 1.04-2.31 2.1a.97.97 0 0 0-.06.89l1.15 2.75q.27.65.69.08 1.77-2.38 1.09-5.41a.52.51 80.7 0 0-.56-.41Zm.59 7.21c2.12.57 6.76-.42 5.31-3.72a.63.63 0 0 0-.81-.34q-2.8 1.12-4.7 3.46a.38.38 0 0 0 .2.6Zm-162.75.15q.59.24 1.22.02a.44.44 0 0 0 .23-.65q-1.75-2.85-5.08-3.38a.46.46 0 0 0-.53.5q.3 3.42 3.57 3.39.3 0 .59.12Zm158.597 3.465a3.54 1.28 84.7 0 0 .948-3.643 3.54 1.28 84.7 0 0-1.602-3.407 3.54 1.28 84.7 0 0-.947 3.643 3.54 1.28 84.7 0 0 1.601 3.407Zm-153.079-.052a3.44 1.26 95.7 0 0 1.596-3.298 3.44 1.26 95.7 0 0-.912-3.548 3.44 1.26 95.7 0 0-1.596 3.298 3.44 1.26 95.7 0 0 .912 3.548Zm3.15 4.75a3.76 1.29 93.7 0 0 1.53-3.67 3.76 1.29 93.7 0 0-1.045-3.835 3.76 1.29 93.7 0 0-1.53 3.669 3.76 1.29 93.7 0 0 1.044 3.835Zm146.78.049a3.83 1.3 86.3 0 0 1.05-3.906 3.83 1.3 86.3 0 0-1.545-3.738 3.83 1.3 86.3 0 0-1.05 3.906 3.83 1.3 86.3 0 0 1.544 3.738ZM15.96 129.68c1.32 2.19 4.13 2.87 6.56 2.59a.39.39 0 0 0 .27-.62q-2.36-3.21-6.56-2.56a.39.39 0 0 0-.27.59Zm169.178-.365a3.72 1.26-21.2 0 0-3.924.17 3.72 1.26-21.2 0 0-3.012 2.52 3.72 1.26-21.2 0 0 3.924-.17 3.72 1.26-21.2 0 0 3.012-2.52ZM29.576 140.229a3.49 1.05 98.8 0 0 1.572-3.288 3.49 1.05 98.8 0 0-.504-3.61 3.49 1.05 98.8 0 0-1.572 3.288 3.49 1.05 98.8 0 0 .504 3.61Zm141.754-.029a3.45 1.05 82.5 0 0 .591-3.557 3.45 1.05 82.5 0 0-1.491-3.284 3.45 1.05 82.5 0 0-.591 3.558 3.45 1.05 82.5 0 0 1.491 3.284Zm11.439-6.38a4.32 1.4-23.6 0 0-4.52.447 4.32 1.4-23.6 0 0-3.398 3.013 4.32 1.4-23.6 0 0 4.52-.447 4.32 1.4-23.6 0 0 3.398-3.012Zm-156.59 3.442a4.28 1.4 23 0 0-3.392-2.96 4.28 1.4 23 0 0-4.487-.384 4.28 1.4 23 0 0 3.393 2.96 4.28 1.4 23 0 0 4.487.384Zm138.251 2.968c1.6.81 3.15 1.83 4.69 2.84a.68.68 0 0 0 .97-.91q-1.43-2.54-1.67-5.42-.08-.9-.7-.24l-3.33 3.55a.12.11 34 0 0 .04.18ZM33.4 136.74a.32.32 0 0 0-.54.11l-2.11 6.09a.32.32 0 0 0 .46.38l4.94-2.91a.32.32 0 0 0 .08-.49l-2.83-3.18Zm-4.9 4.53a3.76 1.04 17.8 0 0-3.262-2.14 3.76 1.04 17.8 0 0-3.898-.16 3.76 1.04 17.8 0 0 3.262 2.14 3.76 1.04 17.8 0 0 3.898.16Zm151.04-2.371a3.64 1.04-19.1 0 0-3.78.208 3.64 1.04-19.1 0 0-3.1 2.174 3.64 1.04-19.1 0 0 3.78-.208 3.64 1.04-19.1 0 0 3.1-2.174Zm-9.7 6.721q-8.96-7.85-18.68-2.44c-8.17 4.55-19.14 12.97-29.53 17.1a.68.68 0 0 0 .28 1.32c17.53-.65 30.05-13.97 47.55-14.89q1.53-.08.38-1.09Zm-89.98 14.79c-9.52-3.88-17.04-9.4-25.65-14.52-8.75-5.21-15.98-7.92-23.46.2a.49.49 0 0 0 .12.75q.56.32 1.07.06a1.63 1.59 34 0 1 .94-.17q10.04 1.28 18.7 5.69c8.49 4.33 18.18 9.45 27.48 9.01q1.06-.05 1.11-.48a.52.51-75.1 0 0-.31-.54Zm-38.95-2.76a.47.47 0 0 0 .67-.43q-.05-4.28-4.04-4.55a.73.72-11.3 0 0-.71 1.05q1.37 2.71 4.08 3.93Zm118.75-1.29a.88.88 0 0 0 1.27.83q2.31-1.15 3.23-3.61a.54.53-76.8 0 0-.44-.72q-3.87-.41-4.06 3.5Zm-112.926 3.563a3.81 1.27 57.2 0 0-.997-3.891 3.81 1.27 57.2 0 0-3.13-2.515 3.81 1.27 57.2 0 0 .995 3.891 3.81 1.27 57.2 0 0 3.132 2.515Zm107.53-.064a3.75 1.27 122.9 0 0 3.102-2.46 3.75 1.27 122.9 0 0 .97-3.838 3.75 1.27 122.9 0 0-3.102 2.46 3.75 1.27 122.9 0 0-.97 3.838Zm14.334-5.73a2.69.95-30.9 0 0-2.796.566 2.69.95-30.9 0 0-1.82 2.196 2.69.95-30.9 0 0 2.796-.566 2.69.95-30.9 0 0 1.82-2.196Zm-131.756 2.678a2.43.94 30.6 0 0-1.614-2.046 2.43.94 30.6 0 0-2.57-.428 2.43.94 30.6 0 0 1.614 2.046 2.43.94 30.6 0 0 2.57.428Zm15.27 4.995a4.01 1.41 56.7 0 0-1.023-4.126 4.01 1.41 56.7 0 0-3.38-2.578 4.01 1.41 56.7 0 0 1.022 4.126 4.01 1.41 56.7 0 0 3.38 2.578Zm101.138-6.712c-3.74.82-3.74 3.66-4.67 6.38a.46.45-5.5 0 0 .66.54q3.7-2.13 4.45-6.51a.36.36 0 0 0-.44-.41Zm-99.78 2.34a.53.53 0 0 0-.74.68l2.39 5.13a.91.91 0 0 0 1.73-.46q-.31-3.57-3.38-5.35Zm90.976 5.941a3.47 1.17 119.8 0 0 2.74-2.43 3.47 1.17 119.8 0 0 .708-3.592 3.47 1.17 119.8 0 0-2.74 2.43 3.47 1.17 119.8 0 0-.708 3.592ZM95.83 158.33c-12.07-2.55-17.33 8.8-27.95 10.47a.54.53 48.5 0 0-.06 1.04q6.97 2.02 12.51-1.5 7.72-4.9 15.56-9.64.43-.27-.06-.37Zm37.55 10.66c-11.05-3.17-16.74-12.72-29.07-10.67a.46.46 0 0 0-.04.9c9.43 2.37 18.82 15.49 29.15 10.2a.23.23 0 0 0-.04-.43Zm32.82-10.13q-3.03-1.16-6 .15a.25.25 0 0 0-.08.4q2.99 3.39 6.28.64a.7.7 0 0 0-.2-1.19Zm-131.15 1.63q2.96 1.63 5.64-.85a.42.42 0 0 0-.15-.71q-2.6-.91-5.33-.04-1.94.62-.16 1.6Zm10.722.571a3.61 1.31-15.9 0 0-3.83-.27 3.61 1.31-15.9 0 0-3.114 2.248 3.61 1.31-15.9 0 0 3.83.27 3.61 1.31-15.9 0 0 3.114-2.248Zm60.808.229c-4.37-.84-7.22-1.54-11.66-.03q-.49.17-.04.41c5.16 2.8 6.61 1.35 11.75.26a.16.15-7.2 0 0 .12-.15v-.29a.21.2 5.1 0 0-.17-.2Zm55.5 1.34q-2.97-3.35-6.89-1.56-.64.3-.04.66c1.86 1.14 4.87 3.09 6.89 1.37a.33.33 0 0 0 .04-.47Zm-110.544.747a4.06 1.38-13 0 0-4.266-.432 4.06 1.38-13 0 0-3.646 2.258 4.06 1.38-13 0 0 4.266.432 4.06 1.38-13 0 0 3.646-2.258Zm105.874 1.822a4.09 1.44 12.7 0 0-3.673-2.304 4.09 1.44 12.7 0 0-4.307.506 4.09 1.44 12.7 0 0 3.673 2.304 4.09 1.44 12.7 0 0 4.307-.506Zm-54.19 1.571a.81.81 0 0 1 .09-1.55l6.32-1.6a.13.13 0 0 0 .09-.19l-.17-.3a.59.58 66.8 0 0-.66-.27l-7.83 2.26a1.72 1.7-43.5 0 1-.99-.02c-2.22-.74-6.07-2.49-8.31-1.81q-.65.2 0 .41l5.34 1.69a.68.68 0 0 1 .08 1.27q-4.53 2.12-8.2 5.46a.66.65-38.7 0 0-.1.86c.38.55 1.03.31 1.5-.08q4.48-3.79 9.94-6.2a1.24 1.21-42.3 0 1 1.07.04q5.13 2.77 9.61 6.31c.42.33.97.31 1.23-.18a.49.49 0 0 0-.1-.57q-3.9-3.63-8.91-5.53Zm-47.082-1.624a3.63 1-18.7 0 0-3.759.217 3.63 1-18.7 0 0-3.117 2.11 3.63 1-18.7 0 0 3.759-.216 3.63 1-18.7 0 0 3.117-2.11Zm95.707 2.303a3.73 1.07 18.1 0 0-3.213-2.176 3.73 1.07 18.1 0 0-3.877-.142 3.73 1.07 18.1 0 0 3.213 2.176 3.73 1.07 18.1 0 0 3.877.142Z"/><ellipse fill="#fcfefc" rx="2.24" ry="1.05" transform="rotate(98.6 -26.494 59.889)"/><ellipse fill="#fcfefc" rx="2.33" ry="1.03" transform="rotate(82.8 32.208 145.214)"/><path fill="#fcfefc" d="m157.16 103.23-.93 3.24a.78.77 8.2 0 1-.76.56q-11.75-.16-22.07-4.89-12.47-5.71-23.89.12-4.94 2.52-6.33 2.87c-8.09 2.03-12.72-2.49-19.79-4.63-14.3-4.33-24.53 5.47-37.75 6.31a.75.74 81.2 0 1-.77-.57l-.82-3.41a.58.57 81.5 0 1 .52-.71c7.95-.49 14.34-3.18 21.44-5.71 7.76-2.77 14.55-2.24 21.77 1.11 7.52 3.49 13.33 4.93 21.08.65 12.48-6.88 20.48-2.21 32.12 2.15q5.2 1.95 15.59 2.11a.63.63 0 0 1 .59.8Zm-125.23-7c2.82 2.24-.08 4.81-2.15 5.74a.36.35 77.9 0 1-.5-.33q.01-3.05 1.94-5.34a.51.51 0 0 1 .71-.07Zm139.29 5.87c-2.13-.67-4.63-4.02-2.17-5.86a.61.61 0 0 1 .83.1q1.92 2.3 1.87 5.38a.41.41 0 0 1-.53.38ZM24.63 96.76a.72.72 0 0 1 1.2-.31q2.14 2.07 2.16 5.09a.39.38-81.2 0 1-.5.37q-4.02-1.25-2.86-5.15Zm150.26-.03a1.03 1.02 45 0 1 1.47.01c1.66 1.71-.58 4.25-2.66 5.1a.4.4 0 0 1-.55-.34q-.2-2.79 1.74-4.77Z"/><ellipse fill="#fcfefc" rx="3.78" ry="1.28" transform="rotate(125.5 -11.134 60.433)"/><ellipse fill="#fcfefc" rx="3.49" ry="1.36" transform="rotate(51.3 -95.89 79.104)"/><ellipse fill="#fcfefc" rx="3.62" ry="1.29" transform="rotate(55.5 -14.74 213.294)"/><path fill="#fcfefc" d="M173.09 107.06c-.49-2.61 1.51-4.37 3.76-5.41a.42.42 0 0 1 .58.3c.5 2.37-2.03 4.28-3.79 5.35a.37.36-21.1 0 1-.55-.24Zm-24.98 4.39c1.57.27 3.58.19 5.38.47a.47.46-72.9 0 1 .34.65l-1.55 3.43a.74.73 12.9 0 1-.7.43c-15.94-.7-26.79-13.29-43.07-4-11.25 6.42-15.38.45-25.48-2.37-11.68-3.26-21.19 2.33-32.2 5.94q-1.79.59-2.54-1.14l-1.09-2.54a.5.5 0 0 1 .4-.7c6.77-.92 12.71-3.58 19.1-5.8 8.13-2.82 15.81-1.5 23.29 2.42q5.4 2.84 11.34 2.13c5.33-.63 9.47-4.69 14.91-5.65 11.19-1.97 20.57 4.8 31.87 6.73Zm-115.36-4.2q.21-.55.74-.81a.46.46 0 0 1 .64.29c.96 3.34-1.82 5.21-4.12 6.94a.5.5 0 0 1-.79-.47q.5-3.27 3.06-5.32a1.5 1.49 82.1 0 0 .47-.63Z"/><ellipse fill="#fcfefc" rx="4.09" ry="1.36" transform="rotate(56.8 -17.252 211.332)"/><ellipse fill="#fcfefc" rx="4.03" ry="1.49" transform="rotate(54.4 -94.235 80.136)"/><ellipse fill="#fcfefc" rx="3.91" ry="1.43" transform="rotate(125.9 59.533 99.759)"/><ellipse fill="#fcfefc" rx="3.65" ry="1.11" transform="rotate(127.9 -12.142 65.545)"/><ellipse fill="#fcfefc" rx="3.58" ry="1.13" transform="rotate(51.6 -34.9 232.542)"/><ellipse fill="#fcfefc" rx="3.61" ry="1.03" transform="rotate(131.3 61.427 97.384)"/><ellipse fill="#fcfefc" rx="3.52" ry="1.12" transform="rotate(48.4 -115.626 86.693)"/><path fill="#fcfefc" d="M148.69 121.21a.3.3 0 0 1 .19.48l-2.64 3.47a.9.88 25.3 0 1-.92.32c-14.15-3.61-21.8-11.35-36.9-3.08-8.48 4.65-14.37 1.98-22.65-1.55-12.04-5.13-19.5-.24-30.93 3.46a.72.72 0 0 1-.82-.27l-2-2.78a.42.42 0 0 1 .21-.65c12.95-4.26 20.63-9.8 34.74-3.99 7.06 2.91 13.4 5.65 20.46 1.53 16.48-9.62 25.67.72 41.26 3.06Z"/><ellipse fill="#fcfefc" rx="2.59" ry=".98" transform="rotate(66.7 -83.251 73.452)"/><ellipse fill="#fcfefc" rx="2.59" ry=".95" transform="rotate(113.5 52.324 120.725)"/><path fill="#fcfefc" d="M21.34 126.41a.19.19 0 0 1-.32 0q-1.73-2.54-1.22-5.61a.55.54-78.1 0 1 .66-.44c3.55.83 2.2 4.04.88 6.05Zm156.94-3.99c.63-1.06.93-1.97 2.31-2.1a.52.51 80.7 0 1 .56.41q.68 3.03-1.09 5.41-.42.57-.69-.08l-1.15-2.75a.97.97 0 0 1 .06-.89Zm-36.45 7.37a.24.24 0 0 1 .08.4c-24.36 24.26-60.41 23.13-84.06-1.48a.27.26 57.4 0 1 .09-.43c10.65-4.06 18.17-7 29.2-2.07 7.9 3.53 13.58 5.56 21.78.93 12.48-7.04 20.72-2.1 32.91 2.65Zm-20.23 4.89q-.87-2.18.11-4.21a1.44 1.42 89.6 0 1 .64-.66l5.33-2.78a.18.17-23.4 0 0 .09-.22l-.1-.28a.29.28-23.2 0 0-.39-.15l-5.29 2.56a1.78 1.75-88 0 0-.76.72q-1.45 2.59-.73 5.86.12.54-.31.83a.58.58 0 0 1-.8-.14l-.57-.77a.61.61 0 0 0-.98-.01q-1.35 1.74.25 3.32a.76.76 0 0 1-.35 1.28q-1.17.3-1.98 1.15-.96 1.02.38.63l2.09-.61a1.22 1.2-88.9 0 0 .79-.77l.83-2.51a.7.69 10.2 0 1 .7-.48q4.26.29 6.2-3.69a.61.61 0 0 0-.31-.83q-3.02-1.3-3.77 1.69a.56.56 0 0 1-1.07.07Zm-29.19-2.73a1.06 1.06 0 0 0-1.06-1.06 1.06 1.06 0 0 0-1.06 1.06 1.06 1.06 0 0 0 1.06 1.06 1.06 1.06 0 0 0 1.06-1.06Zm-17.58 2.62-.36-.93q-.28-.71-.7-.08c-2.77 4.23 4.1 4.72 6.27 5.19 2.41.51 3.94.25 5.45-1.61a.45.45 0 0 1 .79.35q-.24 1.66.32 3.23 1.02 2.91 2.99.54l2.43-2.92a.56.56 0 0 0-.19-.86l-.37-.18a.7.7 0 0 0-.87.23l-1.43 2.01a.79.79 0 0 1-1.35-.12c-1.38-2.85-.26-4.55-.75-7.47q-.29-1.73-.5.01l-.53 4.32a.7.69-2.4 0 1-.55.59q-5.32 1.03-10.12-1.68a1.24 1.18 5.7 0 1-.53-.62Zm20.5 3.99.37.52a.45.45 0 0 1-.21.69l-.95.34a.49.48-20.6 0 0-.29.63l.45 1.11q.35.9.93.12.53-.72.34-1.65a.98.97-25.1 0 1 .36-.98l.85-.67a.63.63 0 0 1 1.02.5c-.03 5.96 11.57 1.07 13.81-.66q1.73-1.35 3.88-1.86a.72.72 0 0 0 .53-.91l-.54-1.76a.59.58-43.7 0 0-1.11-.02c-1.59 4.42-8.21 5.86-12.22 5.64-3.24-.17-5.05-2.38-8.93-2.09a.78.78 0 0 0-.69.52c-.27.76 1.26 2.49 1.86.62q.18-.58.54-.09Zm-3.13-2.57q1.44.22 2.28-.75.39-.45-.2-.55-3.94-.66-6.01 2.39a.54.53-58.9 0 0 .19.77c1.47.82 1.38-2.21 3.74-1.86Zm14.78.369a.8.8 0 0 0-.797-.803l-3.3-.012a.8.8 0 0 0-.802.797l-.002.32a.8.8 0 0 0 .798.803l3.3.012a.8.8 0 0 0 .802-.797l.002-.32Zm-30.046 5.116a1.37.96 102.9 0 0 1.242-1.12 1.37.96 102.9 0 0-.63-1.55 1.37.96 102.9 0 0-1.242 1.12 1.37.96 102.9 0 0 .63 1.55Zm9.816 2.165a.23.22 58.3 0 0-.04.18c.29 1.68 2.75 1.09 1.82-1.35q-.3-.78-.81-.11l-.97 1.28Zm99.74-19.83c1.45 3.3-3.19 4.29-5.31 3.72a.38.38 0 0 1-.2-.6q1.9-2.34 4.7-3.46a.63.63 0 0 1 .81.34Zm-168.65 3.75q-3.27.03-3.57-3.39a.46.46 0 0 1 .53-.5q3.33.53 5.08 3.38a.44.44 0 0 1-.23.65q-.63.22-1.22-.02-.29-.12-.59-.12Z"/><ellipse fill="#fcfefc" rx="3.54" ry="1.28" transform="rotate(84.7 18.347 160.735)"/><ellipse fill="#fcfefc" rx="3.44" ry="1.26" transform="rotate(95.7 -45.636 74.828)"/><path fill="#049141" d="M121.6 134.68a.56.56 0 0 0 1.07-.07q.75-2.99 3.77-1.69a.61.61 0 0 1 .31.83q-1.94 3.98-6.2 3.69a.7.69 10.2 0 0-.7.48l-.83 2.51a1.22 1.2-88.9 0 1-.79.77l-2.09.61q-1.34.39-.38-.63.81-.85 1.98-1.15a.76.76 0 0 0 .35-1.28q-1.6-1.58-.25-3.32a.61.61 0 0 1 .98.01l.57.77a.58.58 0 0 0 .8.14q.43-.29.31-.83-.72-3.27.73-5.86a1.78 1.75-88 0 1 .76-.72l5.29-2.56a.29.28-23.2 0 1 .39.15l.1.28a.18.17-23.4 0 1-.09.22l-5.33 2.78a1.44 1.42 89.6 0 0-.64.66q-.98 2.03-.11 4.21Zm1.41.42a.43.43 0 0 0 .66.46l1.41-.97q1.08-.74-.22-.85-1.47-.13-1.85 1.36Z"/><ellipse fill="#fcfefc" rx="3.76" ry="1.29" transform="rotate(93.7 -48.242 78.86)"/><ellipse fill="#fcfefc" rx="3.83" ry="1.3" transform="rotate(86.3 16.372 158.645)"/><path fill="#fcfefc" d="M22.52 132.27c-2.43.28-5.24-.4-6.56-2.59a.39.39 0 0 1 .27-.59q4.2-.65 6.56 2.56a.39.39 0 0 1-.27.62Z"/><ellipse fill="#fcfefc" rx="3.72" ry="1.26" transform="rotate(-21.2 439.923 -420.043)"/><circle cx="91.35" cy="131.95" r="1.06" fill="#049141"/><path fill="#049141" d="M75.36 135.19q4.8 2.71 10.12 1.68a.7.69-2.4 0 0 .55-.59l.53-4.32q.21-1.74.5-.01c.49 2.92-.63 4.62.75 7.47a.79.79 0 0 0 1.35.12l1.43-2.01a.7.7 0 0 1 .87-.23l.37.18a.56.56 0 0 1 .19.86l-2.43 2.92q-1.97 2.37-2.99-.54-.56-1.57-.32-3.23a.45.45 0 0 0-.79-.35c-1.51 1.86-3.04 2.12-5.45 1.61-2.17-.47-9.04-.96-6.27-5.19q.42-.63.7.08l.36.93a1.24 1.18 5.7 0 0 .53.62Z"/><ellipse fill="#fcfefc" rx="3.49" ry="1.05" transform="rotate(98.8 -43.562 81.294)"/><ellipse fill="#fcfefc" rx="3.45" ry="1.05" transform="rotate(82.5 7.456 165.816)"/><ellipse fill="#fcfefc" rx="4.32" ry="1.4" transform="rotate(-23.6 413.826 -360.183)"/><ellipse fill="#fcfefc" rx="4.28" ry="1.4" transform="rotate(23 -322.103 122.452)"/><path fill="#049141" d="M94.79 138.65c-.6 1.87-2.13.14-1.86-.62a.78.78 0 0 1 .69-.52c3.88-.29 5.69 1.92 8.93 2.09 4.01.22 10.63-1.22 12.22-5.64a.59.58-43.7 0 1 1.11.02l.54 1.76a.72.72 0 0 1-.53.91q-2.15.51-3.88 1.86c-2.24 1.73-13.84 6.62-13.81.66a.63.63 0 0 0-1.02-.5l-.85.67a.98.97-25.1 0 0-.36.98q.19.93-.34 1.65-.58.78-.93-.12l-.45-1.11a.49.48-20.6 0 1 .29-.63l.95-.34a.45.45 0 0 0 .21-.69l-.37-.52q-.36-.49-.54.09Z"/><path fill="#fcfefc" d="M123.01 135.1q.38-1.49 1.85-1.36 1.3.11.22.85l-1.41.97a.43.43 0 0 1-.66-.46Z"/><path fill="#049141" d="M92.2 135.99c-2.36-.35-2.27 2.68-3.74 1.86a.54.53-58.9 0 1-.19-.77q2.07-3.05 6.01-2.39.59.1.2.55-.84.97-2.28.75Z"/><rect width="4.9" height="1.92" x="-2.45" y="-.96" fill="#049141" rx=".8" transform="rotate(.2 -39054.93 30013.864)"/><path fill="#fcfefc" d="M169.12 143.07c-1.54-1.01-3.09-2.03-4.69-2.84a.12.11 34 0 1-.04-.18l3.33-3.55q.62-.66.7.24.24 2.88 1.67 5.42a.68.68 0 0 1-.97.91ZM33.4 136.74l2.83 3.18a.32.32 0 0 1-.08.49l-4.94 2.91a.32.32 0 0 1-.46-.38l2.11-6.09a.32.32 0 0 1 .54-.11Z"/><ellipse fill="#fcfefc" rx="3.76" ry="1.04" transform="rotate(17.8 -434.934 149.628)"/><ellipse fill="#fcfefc" rx="3.64" ry="1.04" transform="rotate(-19.1 504.39 -453.315)"/><ellipse fill="#049141" rx="1.37" ry=".96" transform="rotate(102.9 -17.216 100.845)"/><path fill="#fcfefc" d="M169.84 145.62q1.15 1.01-.38 1.09c-17.5.92-30.02 14.24-47.55 14.89a.68.68 0 0 1-.28-1.32c10.39-4.13 21.36-12.55 29.53-17.1q9.72-5.41 18.68 2.44Zm-39.96 13.45q3.18-.47 5.99-2.02 8.22-4.51 16.51-8.84 3.56-1.85 7.79-2.06a.67.67 0 0 0 .54-1.01c-1.02-1.69-8.97 1.57-10.43 2.37-6.66 3.63-12.39 7.67-20 10.44-.26.09-.59.45-.71.66a.31.31 0 0 0 .31.46Zm-50.02 1.34a.52.51-75.1 0 1 .31.54q-.05.43-1.11.48c-9.3.44-18.99-4.68-27.48-9.01q-8.66-4.41-18.7-5.69a1.63 1.59 34 0 0-.94.17q-.51.26-1.07-.06a.49.49 0 0 1-.12-.75c7.48-8.12 14.71-5.41 23.46-.2 8.61 5.12 16.13 10.64 25.65 14.52Zm-8.8-2.26q-11.49-4.95-21.54-11.47-2.6-1.69-8.6-2.01a.54.53 10.1 0 0-.55.38l-.1.31a.5.5 0 0 0 .42.64q6.62.79 11.5 3.82c2.98 1.85 17.9 11 19.1 9.09a.52.52 0 0 0-.23-.76Z"/><path fill="#049141" d="m86.75 143.64.97-1.28q.51-.67.81.11c.93 2.44-1.53 3.03-1.82 1.35a.23.22 58.3 0 1 .04-.18Zm-15.69 14.51a.52.52 0 0 1 .23.76c-1.2 1.91-16.12-7.24-19.1-9.09q-4.88-3.03-11.5-3.82a.5.5 0 0 1-.42-.64l.1-.31a.54.53 10.1 0 1 .55-.38q6 .32 8.6 2.01 10.05 6.52 21.54 11.47Zm58.82.92a.31.31 0 0 1-.31-.46c.12-.21.45-.57.71-.66 7.61-2.77 13.34-6.81 20-10.44 1.46-.8 9.41-4.06 10.43-2.37a.67.67 0 0 1-.54 1.01q-4.23.21-7.79 2.06-8.29 4.33-16.51 8.84-2.81 1.55-5.99 2.02Z"/><path fill="#fcfefc" d="M40.91 157.65q-2.71-1.22-4.08-3.93a.73.72-11.3 0 1 .71-1.05q3.99.27 4.04 4.55a.47.47 0 0 1-.67.43Zm118.75-1.29q.19-3.91 4.06-3.5a.54.53-76.8 0 1 .44.72q-.92 2.46-3.23 3.61a.88.88 0 0 1-1.27-.83Z"/><ellipse fill="#fcfefc" rx="3.81" ry="1.27" transform="rotate(57.2 -121.387 119.325)"/><ellipse fill="#fcfefc" rx="3.75" ry="1.27" transform="rotate(122.9 35.518 120.875)"/><ellipse fill="#fcfefc" rx="2.69" ry=".95" transform="rotate(-30.9 364.474 -223.075)"/><ellipse fill="#fcfefc" rx="2.43" ry=".94" transform="rotate(30.6 -266.96 141.297)"/><ellipse fill="#fcfefc" rx="4.01" ry="1.41" transform="rotate(56.7 -121.875 125.475)"/><path fill="#fcfefc" d="M148.58 161.47c.93-2.72.93-5.56 4.67-6.38a.36.36 0 0 1 .44.41q-.75 4.38-4.45 6.51a.46.45-5.5 0 1-.66-.54Zm-95.11-4.04q3.07 1.78 3.38 5.35a.91.91 0 0 1-1.73.46l-2.39-5.13a.53.53 0 0 1 .74-.68Z"/><ellipse fill="#fcfefc" rx="3.47" ry="1.17" transform="rotate(119.8 26.606 122.546)"/><path fill="#fcfefc" d="M95.89 158.7q-7.84 4.74-15.56 9.64-5.54 3.52-12.51 1.5a.54.53 48.5 0 1 .06-1.04c10.62-1.67 15.88-13.02 27.95-10.47q.49.1.06.37Zm37.49 10.29a.23.23 0 0 1 .04.43c-10.33 5.29-19.72-7.83-29.15-10.2a.46.46 0 0 1 .04-.9c12.33-2.05 18.02 7.5 29.07 10.67Zm32.82-10.13a.7.7 0 0 1 .2 1.19q-3.29 2.75-6.28-.64a.25.25 0 0 1 .08-.4q2.97-1.31 6-.15Zm-131.15 1.63q-1.78-.98.16-1.6 2.73-.87 5.33.04a.42.42 0 0 1 .15.71q-2.68 2.48-5.64.85Z"/><ellipse fill="#fcfefc" rx="3.61" ry="1.31" transform="rotate(-15.9 601.346 -70.424)"/><path fill="#fcfefc" d="M94.92 161.26c4.44-1.51 7.29-.81 11.66.03a.21.2 5.1 0 1 .17.2v.29a.16.15-7.2 0 1-.12.15c-5.14 1.09-6.59 2.54-11.75-.26q-.45-.24.04-.41Zm67.16 1.37a.33.33 0 0 1-.04.47c-2.02 1.72-5.03-.23-6.89-1.37q-.6-.36.04-.66 3.92-1.79 6.89 1.56Z"/><ellipse fill="#fcfefc" rx="4.06" ry="1.38" transform="rotate(-13 744.767 -126.657)"/><ellipse fill="#fcfefc" rx="4.09" ry="1.44" transform="rotate(12.7 -661.489 771.465)"/><path fill="#fcfefc" d="M103.22 166.77q5.01 1.9 8.91 5.53a.49.49 0 0 1 .1.57c-.26.49-.81.51-1.23.18q-4.48-3.54-9.61-6.31a1.24 1.21-42.3 0 0-1.07-.04q-5.46 2.41-9.94 6.2c-.47.39-1.12.63-1.5.08a.66.65-38.7 0 1 .1-.86q3.67-3.34 8.2-5.46a.68.68 0 0 0-.08-1.27l-5.34-1.69q-.65-.21 0-.41c2.24-.68 6.09 1.07 8.31 1.81a1.72 1.7-43.5 0 0 .99.02l7.83-2.26a.59.58 66.8 0 1 .66.27l.17.3a.13.13 0 0 1-.09.19l-6.32 1.6a.81.81 0 0 0-.09 1.55Z"/><ellipse fill="#fcfefc" rx="3.63" ry="1" transform="rotate(-18.7 531.383 -76.879)"/><ellipse fill="#fcfefc" rx="3.73" ry="1.07" transform="rotate(18.1 -447.858 548.68)"/></svg>